<?xml version="1.0" encoding="UTF-8"?>
<svg width="24.223mm" height="15.386mm" version="1.1" viewBox="0 0 24.223 15.386" xmlns="http://www.w3.org/2000/svg"><g transform="translate(-130.3,-149.8)" fill="none" stroke="#f1c40f" stroke-linecap="round" stroke-width=".70009"><path d="m132.66 163.08c-.37103-.70735-.81791-.79796-1.063-1.2757-.24515-.4777-.0131-1.3543-.18899-1.8899-.17588-.53555-.7659-.81241-.75595-1.2757.01-.46326.6667-.6024.7087-1.0867s-.69252-.95251-.63784-1.4883c.0547-.53577.7909-.81325.92132-1.3229.13043-.50966-.37296-1.054-.16536-1.5355.20759-.48151.96928-.48467 1.2757-.96857.30638-.4839-.69835-1.0093.96856-1.819s7.1638 3.2798 8.8352 3.3309 8.1483-4.7373 9.0951-3.3545.22831 1.3716.73233 1.9135.92966.82057 1.0867 1.3229-.24725.99637-.11812 1.441.69892.58184.8032 1.063c.10428.48122-.34765 1.0677-.35435 1.5828-.007.51506.38772 1.0215.28348 1.441s-.55707.43641-.7087.87407.22778 1.1506.0236 1.6536-.8022.60757-1.1339 1.1339.46758.77612-.99219 1.8426c-1.4598 1.0665-6.8737-3.3258-8.8352-3.331-1.9615-.005-6.928 3.8161-8.4573 3.3548-1.5293-.46135-.95197-.89891-1.323-1.6062z"/><path d="m139.07 157.52 6.9217.0472"/></g></svg>
