<?xml version="1.0" encoding="UTF-8"?>
<svg width="24.223mm" height="15.386mm" version="1.1" viewBox="0 0 24.223 15.386" xmlns="http://www.w3.org/2000/svg"><g transform="translate(-88.238,-109.86)" fill="none" stroke="#f1c40f" stroke-linecap="round" stroke-width=".7"><path d="m90.596 123.15c-.37102-.70734-.81791-.79796-1.0631-1.2757s-.01311-1.3543-.18899-1.8899-.7659-.81241-.75595-1.2757c.0099-.46326.66671-.6024.7087-1.0867.042-.48428-.69252-.95251-.63784-1.4883.05469-.53577.79089-.81325.92132-1.3229s-.37296-1.054-.16536-1.5355.96928-.48467 1.2757-.96857-.69835-1.0093.96856-1.819 7.1638 3.2798 8.8352 3.3309 8.1483-4.7373 9.0951-3.3545.22831 1.3716.73233 1.9135.92966.82057 1.0867 1.3229-.24725.99637-.11812 1.441.69892.58184.8032 1.063c.10428.48122-.34765 1.0677-.35435 1.5828-.007.51506.38772 1.0215.28348 1.441s-.55707.43641-.7087.87407.22778 1.1506.0236 1.6536-.8022.60757-1.1339 1.1339.46758.77612-.99219 1.8426c-1.4598 1.0665-6.8737-3.3258-8.8352-3.331-1.9615-.005-6.928 3.8161-8.4572 3.3548s-.95192-.89891-1.3229-1.6062z" stroke-width=".70009"/><path d="m96.641 116.3s2.6012.31904 2.6015 1.2728-2.5502 1.4048-2.5502 1.4048"/><path d="m104.17 118.87s-2.6012-.31904-2.6015-1.2728c-.00027-.95377 2.5502-1.4048 2.5502-1.4048"/><path d="m99.257 117.55 2.3052-.0167"/></g></svg>
