<?xml version="1.0" encoding="UTF-8"?>
<svg width="28.499mm" height="9.4378mm" version="1.1" viewBox="0 0 28.499 9.4378" xmlns="http://www.w3.org/2000/svg"><g transform="translate(-128.17,-73.059)" fill="none" stroke="#f1c40f" stroke-linecap="round" stroke-width=".7"><g stroke-width=".70009"><path d="m133.07 73.41c-.43084-.03187-4.5488 3.9191-4.5475 4.2995.001.38034 3.9755 4.3099 4.3822 4.3585.40667.04865 4.0636-3.8883 4.0396-4.2995s-3.4434-4.3267-3.8743-4.3585z"/><path d="m152.45 73.487c-.43084-.03187-4.5488 3.9191-4.5475 4.2995.001.38034 3.9755 4.3099 4.3822 4.3585.40667.04865 4.0636-3.8883 4.0396-4.2995s-3.4434-4.3267-3.8743-4.3585z"/><path d="m132.91 82.068 19.387.07433"/><path d="m133.07 73.41 19.377.07648"/><path d="m136.36 78.652s4.2172-4.8047 4.496-5.175"/><path d="m144.14 73.457c.39272.40139 3.9762 4.6803 3.9762 4.6803"/></g><g><path d="m132.5 75.742 2.7729-.0084"/><path d="m134.1 77.78 2.7729-.0084"/><path d="m132.58 79.717 2.7729-.0084"/><path d="m149.82 75.725 2.7729-.0084"/><path d="m148.05 77.775 2.7729-.0084"/><path d="m149.77 79.767 2.7729-.0084"/></g></g></svg>
