<?xml version="1.0" encoding="UTF-8"?>
<svg width="29.002mm" height="10.629mm" version="1.1" viewBox="0 0 29.002 10.629" xmlns="http://www.w3.org/2000/svg"><g transform="translate(-128.11,-32.643)" fill="none" stroke="#f1c40f" stroke-linecap="round" stroke-width=".70009"><path d="m133.23 33.342c-.68153.47822 4.733 9.1109 5.3454 9.4213s12.691.14892 13.397-.33409c.6536-.44714-4.7426-8.7916-5.4122-9.154s-12.649-.4114-13.33.06682v-2e-6"/><path d="m137.51 41.483s-8.3447.34785-9.0006-.09449c-.65588-.44234 4.722-8.0465 4.722-8.0465"/><path d="m147.4 34.242s8.6454-.33114 9.3012.11119c.65588.44234-4.722 8.0465-4.722 8.0465"/><g><path d="m133.67 34.845 3.4627-1e-6"/><path d="m134.78 36.829 3.4745-1e-6"/><path d="m135.85 38.743 3.4745-1e-6"/><path d="m137.06 40.691 3.4745-1e-6"/></g></g></svg>
