<?xml version="1.0" encoding="UTF-8"?>
<svg width="27.629mm" height="8.6323mm" version="1.1" viewBox="0 0 27.629 8.6323" xmlns="http://www.w3.org/2000/svg"><g transform="translate(-86.506,-73.368)" fill="none" stroke="#f1c40f" stroke-linecap="round" stroke-width=".70009"><g><path d="m91.636 73.823c-1.0045-.54416-2.94 1.5724-3.7325 2.9293s-1.5153 4.2972-.66146 4.8192 3.0124-1.7419 3.7561-3.1419 1.6424-4.0624.63783-4.6066z"/><path d="m109.01 73.805c1.0045-.54416 2.94 1.5724 3.7325 2.9293s1.5152 4.2972.66146 4.8192c-.8538.52197-3.0124-1.7419-3.7561-3.1419s-1.6424-4.0624-.63783-4.6066z"/><path d="m91.246 73.737 18.128-.0157"/><path d="m87.496 81.648 25.637-.01764"/></g><g><path d="m92.024 75.8 2.7729-.0084"/><path d="m91.373 77.78 2.7729-.0084"/><path d="m90.183 79.672 2.7729-.0084"/></g></g></svg>
