<?xml version="1.0" encoding="UTF-8"?>
<svg width="22.987mm" height="14.005mm" version="1.1" viewBox="0 0 22.987 14.005" xmlns="http://www.w3.org/2000/svg"><g transform="translate(-88.379,-30.787)" fill="none" stroke="#f1c40f" stroke-linecap="round"><path d="m93.456 32.864s-1.0142-1.7404-2.1168-1.7269c-1.1026.01357-2.2537.34269-2.4388 1.7707s-.29291 8.1465.06682 9.9224 1.6631 1.6071 2.6727 1.6036 1.8041-1.47 1.8041-1.47" stroke-width=".70009"/><path d="m97.905 33.205s-.9923-1.6486-2.0949-1.6356c-1.1026.01296-2.2537.32716-2.4388 1.6904s-.29291 7.7773.06682 9.4727 1.6631 1.5343 2.6727 1.5309 1.8041-1.4034 1.8041-1.4034" stroke-width=".70009"/><path d="m102.38 33.601s-.9923-1.584-2.0949-1.5717-2.2537.31054-2.4388 1.6046c-.18515 1.294-.29291 7.3823.0668 8.9916.35973 1.6093 1.6631 1.4564 2.6727 1.4532 1.0096-.0033 1.8041-1.3321 1.8041-1.3321" stroke-width=".70009"/><path d="m106.82 33.917s-.9923-1.4804-2.0949-1.4688c-1.1026.01159-2.2537.29274-2.4388 1.5126-.18515 1.2199-.29291 6.9593.0668 8.4763.35973 1.5171 1.6631 1.3729 2.6727 1.3699 1.0096-.0031 1.8041-1.2558 1.8041-1.2558" stroke-width=".70009"/><path d="m106.8 34.276c.0153 1.1378-.49339 6.3287.0328 8.2757.52615 1.947 3.2011 1.4086 3.7427.09029.62418-1.528.49433-5.9997.13771-8.1298s-3.8602-1.758-3.9132-.23624z" stroke-width=".70009"/></g></svg>
