<?xml version="1.0" encoding="UTF-8"?>
<svg width="30.794mm" height="10.274mm" version="1.1" viewBox="0 0 30.794 10.274" xmlns="http://www.w3.org/2000/svg"><g transform="translate(-84.819,-152.27)" fill="none" stroke="#f1c40f" stroke-linecap="round" stroke-width=".70009"><path d="m96.215 161.92c.61235.31035 12.892.37334 13.621.0793.73451-.296-4.7426-8.7916-5.4122-9.154-.66957-.36238-13.334-.29326-14.015.18494-.68153.47822 5.1937 8.5794 5.806 8.8897"/><path d="m95.338 160.94s-9.3266.19346-10.099-.0484c-.77281-.2419 5.1708-7.8575 5.1708-7.8575"/><path d="m105.45 154.05s8.996-.2976 9.7522.0946c.75612.39223-5.3552 7.8633-5.3552 7.8633"/><path d="m91.056 154.56 14.66.0118"/><g><path d="m92.211 156.4 14.66.0118"/><path d="m93.414 158.25 14.66.0118"/><path d="m94.8 160.19 14.41-.0383"/></g></g></svg>
