<?xml version="1.0" encoding="UTF-8"?>
<svg width="22.854mm" height="12.03mm" version="1.1" viewBox="0 0 22.854 12.03" xmlns="http://www.w3.org/2000/svg"><g transform="translate(-174.77,-31.95)" fill="none" stroke="#f1c40f" stroke-linecap="round" stroke-width=".70009"><path d="m176.94 38.979c1.0771 1.9214 3.1277 5.5635 5.1499 4.4412s.071-5.0775-1.0867-6.9926c-1.1576-1.9151-3.2866-4.8882-5.1026-3.7798s-.0376 4.4098 1.0394 6.3312z"/><path d="m176.65 32.407s13.001-.2726 14.579.05142c1.5776.32402 3.2794 2.3876 4.4808 4.5531s2.2548 6.1129.97623 6.2901c-1.2786.17718-15.343.32799-15.343.32799"/><g><path d="m179.8 34.514h3.0002" opacity=".99738"/><path d="m181.21 36.633h3.0002" opacity=".99738"/><path d="m182.4 38.888h3.0002" opacity=".99738"/><path d="m183 41.16h3.0002" opacity=".99738"/></g></g></svg>
