<?xml version="1.0" encoding="UTF-8"?>
<svg width="21.616mm" height="18.164mm" version="1.1" viewBox="0 0 21.616 18.164" xmlns="http://www.w3.org/2000/svg"><g transform="translate(-175.45,-68.697)" fill="none" stroke="#f1c40f" stroke-linecap="round" stroke-width=".70009"><circle cx="187.96" cy="77.709" r="2.3015" stroke-dashoffset="18.898"/><g><path d="m186.32 76.03-4.4132-4.4346"/><path d="m188.02 75.391.004-6.3142"/><path d="m189.64 76.122 4.4768-4.5269"/><path d="m190.3 77.675 6.4312-.03341"/><path d="m189.66 79.346 4.4891 4.5877"/><path d="m188.04 80.014-.0183 6.4618"/><path d="m186.32 79.329-4.5058 4.5484"/><path d="m185.61 77.642-6.3191-.0167"/><circle cx="187.99" cy="77.775" r="8.7212" stroke-dashoffset="18.898"/></g><path d="m187.9 86.501s-3.0688.10867-5.9093-.41778-6.141-4.4208-6.1904-8.067 3.3515-8.4236 6.8883-8.7392 5.2576-.21522 5.2576-.21522"/></g></svg>
