<?xml version="1.0" encoding="UTF-8"?>
<svg width="25.986mm" height="13.679mm" version="1.1" viewBox="0 0 25.986 13.679" xmlns="http://www.w3.org/2000/svg"><g transform="translate(-45.161,-30.942)" fill="none" stroke="#f1c40f" stroke-linecap="round" stroke-width=".70009"><path d="m45.57 32.577s-.35452 9.8454.68508 11.036c1.0095 1.1558 3.4457.26293 3.4457.26293"/><path d="m54.522 44.033c.7388-.18966-3.2268-10.332-3.849-11.29-.62215-.95808-1.7454-1.4615-2.7403-1.441-.99488.02046-2.3914.3128-2.3624 1.2757.02904.96286 3.6878 11.233 4.4649 11.432s3.748.213 4.4868.02334z"/><g><path d="m54.647 43.783s4.49.64096 5.4282.30752c.72679-.25833-3.0813-10.336-3.827-11.301s-1.6825-1.3521-2.9293-1.3702c-1.2468-.01804-2.5277 1.5355-2.5277 1.5355"/><path d="m60.189 43.84s4.166.51896 5.1041.18553c.72679-.25833-3.0813-10.398-3.827-11.363s-1.6825-1.3521-2.9293-1.3702c-1.2468-.01804-2.335 1.3954-2.335 1.3954"/><path d="m65.335 43.926s4.4311.49994 5.3692.16651c.72679-.25833-3.0813-10.398-3.827-11.363-.74573-.96457-1.6825-1.3521-2.9293-1.3702-1.2468-.01804-2.3263 1.3779-2.3263 1.3779"/><path d="m70.71 43.134s.35452-9.8454-.68508-11.036c-1.0095-1.1558-4.3811-.39656-4.3811-.39656"/></g></g></svg>
