<?xml version="1.0" encoding="UTF-8"?>
<svg width="22.589mm" height="22.494mm" version="1.1" viewBox="0 0 22.589 22.494" xmlns="http://www.w3.org/2000/svg"><g transform="translate(-4.6262,-106.35)" fill="none" stroke="#f1c40f" stroke-linecap="round" stroke-width=".70009"><path d="m15.969 107.24c.48096.003.9819-.59981 1.47-.53454.48808.0653.65702.66072 1.1359.80181s1.1105-.27603 1.6036-.0668.60858.90526 1.0691 1.2027 1.2067.17419 1.6036.50113.33166.90331.66817 1.2361.97828.26967 1.2695.66818.0151 1.0719.26727 1.5034c.25216.43146.92191.48201 1.1359.93544s-.11353 1.0343 0 1.5368.67001.9275.66817 1.4032c-.0018.47567-.54795.69041-.56795 1.1693s.62375.99437.56795 1.47c-.0558.47561-.59654.62329-.73499 1.0691s.20136 1.0173 0 1.5034-.92807.6745-1.1693 1.1693.12995 1.213-.20045 1.637-1.0699.21405-1.47.56795-.34758 1.1772-.7684 1.4366-.92027-.16171-1.3363.0334-.48068.8512-.93544 1.0691-1.1597-.0983-1.6036.0668-.49309.66442-.96885.7684-1.0978-.42475-1.637-.40091c-.53922.0238-.96197.56583-1.47.50113s-.78687-.69068-1.2695-.83521-1.0647.20382-1.5034 0-.4934-.83644-.90204-1.0691-.97045.066-1.4032-.23386c-.43272-.29987-.47394-1.1586-.86863-1.5034s-.99581-.15373-1.3029-.53453-.02736-1.0351-.26727-1.5034c-.23991-.46832-.95469-.6911-1.1359-1.1693s.21919-.94139.066817-1.4366-.96303-.81277-1.0023-1.3364.6791-.81482.70158-1.3029c.022487-.48812-.62462-.84254-.56795-1.3364s.75554-.73423.90203-1.2361-.31926-1.1005-.10023-1.6036 1.0717-.60887 1.3029-1.0691-.21176-1.0018.066817-1.4032 1.031-.24035 1.4032-.60135.2645-1.0928.66817-1.4366 1.1269-.17869 1.5368-.43431.42543-.76002.86863-.96885 1.1325.0578 1.637-.0668c.50448-.12459.86989-.61571 1.3364-.63476.46648-.019.75518.46466 1.2361.46778z"/><circle transform="rotate(90)" cx="117.7" cy="-16.103" r="8.7212" stroke-dashoffset="18.898"/><g><path d="m16.14 109.01-.004 6.2674"/><path d="m22.234 111.52-4.4768 4.5269"/><path d="m24.783 117.57-6.3751.0334"/><path d="m22.281 123.83-4.5082-4.5636"/><path d="m16.12 126.41.0334-6.4679"/><path d="m9.889 123.85 4.5436-4.5937"/><path d="m7.404 117.55 6.327.0167"/><path d="m10.023 111.52 4.406 4.4634"/></g><circle transform="rotate(90)" cx="117.63" cy="-16.07" r="2.3015" stroke-dashoffset="18.898"/></g></svg>
