<!--?xml version="1.0" encoding="UTF-8"?-->
<svg width="17.841mm" height="17.888mm" version="1.1" viewBox="0 0 17.841 17.888" xmlns="http://www.w3.org/2000/svg" style=""><g transform="translate(-176.66 -147.82)" fill="none" stroke="#f1c40f" stroke-width=".7"><path stroke-dashoffset="18.898" d="M177.009,162.98A1.441,1.441 0,1,1 179.891,162.98A1.441,1.441 0,1,1 177.009,162.98" class="VwXipUXY_0"></path><path d="m177.71 164.22s1.6932 1.2198 3.5501 1.1308c1.8569-.089 4.1318-2.0423 4.0992-4.3495" stroke-linecap="round" class="VwXipUXY_1"></path><path d="m179.33 161.83s1.6892 1.1083 2.6216.0928c.93241-1.0155-.18631-2.5138-.18631-2.5138" stroke-linecap="round" class="VwXipUXY_2"></path><path stroke-dashoffset="18.898" d="M181.44899999999998,158.51A1.441,1.441 0,1,1 184.331,158.51A1.441,1.441 0,1,1 181.44899999999998,158.51" class="VwXipUXY_3"></path><path d="m182.28 159.82s1.6932 1.2198 3.5501 1.1308 4.1297-2.0401 3.88-4.6146" stroke-linecap="round" class="VwXipUXY_4"></path><path d="m183.82 157.42s1.6774 1.0847 2.6098.0692c.93241-1.0155-.13315-2.4843-.13315-2.4843" stroke-linecap="round" class="VwXipUXY_5"></path><path stroke-dashoffset="18.898" d="M185.989,154.12A1.441,1.441 0,1,1 188.871,154.12A1.441,1.441 0,1,1 185.989,154.12" class="VwXipUXY_6"></path><path d="m186.75 155.39s4.0664 2.3881 6.4105-.35509-.19077-6.2373-.19077-6.2373" stroke-linecap="round" class="VwXipUXY_7"></path><path d="m188.14 152.87s1.6597 1.0788 2.5921.0633c.93241-1.0155-.13315-2.4843-.13315-2.4843" stroke-linecap="round" class="VwXipUXY_8"></path><path stroke-dashoffset="18.898" d="M190.339,149.61A1.441,1.441 0,1,1 193.221,149.61A1.441,1.441 0,1,1 190.339,149.61" class="VwXipUXY_9"></path></g><style data-made-with="vivus-instant">.VwXipUXY_0{stroke-dasharray:10 12;stroke-dashoffset:11;animation:VwXipUXY_draw 2000ms ease 0ms forwards;}.VwXipUXY_1{stroke-dasharray:11 13;stroke-dashoffset:12;animation:VwXipUXY_draw 2000ms ease 111ms forwards;}.VwXipUXY_2{stroke-dasharray:6 8;stroke-dashoffset:7;animation:VwXipUXY_draw 2000ms ease 222ms forwards;}.VwXipUXY_3{stroke-dasharray:10 12;stroke-dashoffset:11;animation:VwXipUXY_draw 2000ms ease 333ms forwards;}.VwXipUXY_4{stroke-dasharray:11 13;stroke-dashoffset:12;animation:VwXipUXY_draw 2000ms ease 444ms forwards;}.VwXipUXY_5{stroke-dasharray:6 8;stroke-dashoffset:7;animation:VwXipUXY_draw 2000ms ease 555ms forwards;}.VwXipUXY_6{stroke-dasharray:10 12;stroke-dashoffset:11;animation:VwXipUXY_draw 2000ms ease 666ms forwards;}.VwXipUXY_7{stroke-dasharray:14 16;stroke-dashoffset:15;animation:VwXipUXY_draw 2000ms ease 777ms forwards;}.VwXipUXY_8{stroke-dasharray:6 8;stroke-dashoffset:7;animation:VwXipUXY_draw 2000ms ease 888ms forwards;}.VwXipUXY_9{stroke-dasharray:10 12;stroke-dashoffset:11;animation:VwXipUXY_draw 2000ms ease 1000ms forwards;}@keyframes VwXipUXY_draw{100%{stroke-dashoffset:0;}}@keyframes VwXipUXY_fade{0%{stroke-opacity:1;}94.44444444444444%{stroke-opacity:1;}100%{stroke-opacity:0;}}</style></svg>
