<!--?xml version="1.0" encoding="UTF-8"?-->
<svg width="21.409mm" height="9.3933mm" version="1.1" viewBox="0 0 21.409 9.3933" xmlns="http://www.w3.org/2000/svg" style=""><g transform="translate(-175.59,-112.86)" fill="none" stroke="#f1c40f" stroke-linecap="round" stroke-width=".70009"><path d="m179.1 113.29c1.2171-.2407 1.6227 1.1451 2.539 1.1526.91637.008 1.483-1.155 2.372-1.1526.88898.002 1.3977 1.1287 2.2718 1.1359.87407.007 1.5492-1.2196 2.4388-1.1693.88966.0503 1.3359 1.3962 2.2384 1.4032.90247.007 1.1064-1.6115 2.372-1.4366s3.8186 2.9634 3.1404 3.9589-2.2254-1.6102-3.2239-1.5535-1.3538 1.103-2.2217 1.1025-1.6722-1.1286-2.5391-1.1025c-.86685.0261-1.3249 1.0975-2.1716 1.1025-.84665.005-1.5551-1.1905-2.372-1.1693s-1.449 1.1902-2.2384 1.186c-.78938-.004-1.5173-1.0738-2.5725-1.0524-1.0551.0214-2.2782 2.45-3.0568 1.353s1.8065-3.5178 3.0236-3.7584z" class="GPcFRNMN_0"></path><path d="m179.16 117.78c1.2171-.2407 1.6227 1.1451 2.539 1.1526.91637.008 1.483-1.155 2.372-1.1526.88898.002 1.3977 1.1287 2.2718 1.1359.87407.007 1.5492-1.2196 2.4388-1.1693.88966.0503 1.3359 1.3962 2.2384 1.4032.90247.007 1.1064-1.6115 2.372-1.4366s3.8186 2.9634 3.1404 3.9589-2.2254-1.6102-3.2239-1.5535-1.3538 1.103-2.2217 1.1025-1.6722-1.1286-2.5391-1.1025c-.86685.0261-1.3249 1.0975-2.1716 1.1025-.84665.005-1.5551-1.1905-2.372-1.1693s-1.449 1.1902-2.2384 1.186c-.78938-.004-1.5173-1.0738-2.5725-1.0524-1.0551.0214-2.2782 2.45-3.0568 1.353s1.8065-3.5178 3.0236-3.7584z" class="GPcFRNMN_1"></path></g><style data-made-with="vivus-instant">.GPcFRNMN_0{stroke-dasharray:51 53;stroke-dashoffset:52;animation:GPcFRNMN_draw 3000ms ease 0ms forwards;}.GPcFRNMN_1{stroke-dasharray:51 53;stroke-dashoffset:52;animation:GPcFRNMN_draw 3000ms ease 0ms forwards;}@keyframes GPcFRNMN_draw{100%{stroke-dashoffset:0;}}@keyframes GPcFRNMN_fade{0%{stroke-opacity:1;}94.44444444444444%{stroke-opacity:1;}100%{stroke-opacity:0;}}</style></svg>
