<!--?xml version="1.0" encoding="UTF-8"?-->
<svg width="28.499mm" height="9.4378mm" version="1.1" viewBox="0 0 28.499 9.4378" xmlns="http://www.w3.org/2000/svg" style=""><g transform="translate(-128.17,-73.059)" fill="none" stroke="#f1c40f" stroke-linecap="round" stroke-width=".7"><g stroke-width=".70009"><path d="m133.07 73.41c-.43084-.03187-4.5488 3.9191-4.5475 4.2995.001.38034 3.9755 4.3099 4.3822 4.3585.40667.04865 4.0636-3.8883 4.0396-4.2995s-3.4434-4.3267-3.8743-4.3585z" class="gpIwWeII_0"></path><path d="m152.45 73.487c-.43084-.03187-4.5488 3.9191-4.5475 4.2995.001.38034 3.9755 4.3099 4.3822 4.3585.40667.04865 4.0636-3.8883 4.0396-4.2995s-3.4434-4.3267-3.8743-4.3585z" class="gpIwWeII_1"></path><path d="m132.91 82.068 19.387.07433" class="gpIwWeII_2"></path><path d="m133.07 73.41 19.377.07648" class="gpIwWeII_3"></path><path d="m136.36 78.652s4.2172-4.8047 4.496-5.175" class="gpIwWeII_4"></path><path d="m144.14 73.457c.39272.40139 3.9762 4.6803 3.9762 4.6803" class="gpIwWeII_5"></path></g><g><path d="m132.5 75.742 2.7729-.0084" class="gpIwWeII_6"></path><path d="m134.1 77.78 2.7729-.0084" class="gpIwWeII_7"></path><path d="m132.58 79.717 2.7729-.0084" class="gpIwWeII_8"></path><path d="m149.82 75.725 2.7729-.0084" class="gpIwWeII_9"></path><path d="m148.05 77.775 2.7729-.0084" class="gpIwWeII_10"></path><path d="m149.77 79.767 2.7729-.0084" class="gpIwWeII_11"></path></g></g><style data-made-with="vivus-instant">.gpIwWeII_0{stroke-dasharray:25 27;stroke-dashoffset:26;animation:gpIwWeII_draw 582ms ease-in-out 0ms forwards;}.gpIwWeII_1{stroke-dasharray:25 27;stroke-dashoffset:26;animation:gpIwWeII_draw 582ms ease-in-out 582ms forwards;}.gpIwWeII_2{stroke-dasharray:20 22;stroke-dashoffset:21;animation:gpIwWeII_draw 470ms ease-in-out 1164ms forwards;}.gpIwWeII_3{stroke-dasharray:20 22;stroke-dashoffset:21;animation:gpIwWeII_draw 470ms ease-in-out 1634ms forwards;}.gpIwWeII_4{stroke-dasharray:7 9;stroke-dashoffset:8;animation:gpIwWeII_draw 179ms ease-in-out 2104ms forwards;}.gpIwWeII_5{stroke-dasharray:7 9;stroke-dashoffset:8;animation:gpIwWeII_draw 179ms ease-in-out 2283ms forwards;}.gpIwWeII_6{stroke-dasharray:3 5;stroke-dashoffset:4;animation:gpIwWeII_draw 89ms ease-in-out 2462ms forwards;}.gpIwWeII_7{stroke-dasharray:3 5;stroke-dashoffset:4;animation:gpIwWeII_draw 89ms ease-in-out 2552ms forwards;}.gpIwWeII_8{stroke-dasharray:3 5;stroke-dashoffset:4;animation:gpIwWeII_draw 89ms ease-in-out 2641ms forwards;}.gpIwWeII_9{stroke-dasharray:3 5;stroke-dashoffset:4;animation:gpIwWeII_draw 89ms ease-in-out 2731ms forwards;}.gpIwWeII_10{stroke-dasharray:3 5;stroke-dashoffset:4;animation:gpIwWeII_draw 89ms ease-in-out 2820ms forwards;}.gpIwWeII_11{stroke-dasharray:3 5;stroke-dashoffset:4;animation:gpIwWeII_draw 89ms ease-in-out 2910ms forwards;}@keyframes gpIwWeII_draw{100%{stroke-dashoffset:0;}}@keyframes gpIwWeII_fade{0%{stroke-opacity:1;}94.44444444444444%{stroke-opacity:1;}100%{stroke-opacity:0;}}</style></svg>
