<!--?xml version="1.0" encoding="UTF-8"?-->
<svg width="19.989mm" height="13.545mm" version="1.1" viewBox="0 0 19.989 13.545" xmlns="http://www.w3.org/2000/svg" style=""><g transform="translate(-5.9523,-30.987)" fill="none" stroke="#f1c40f" stroke-linecap="round" stroke-width=".70009"><path stroke-dashoffset="18.898" stroke-linejoin="round" d="M6.302300000000001,41.242A2.94,2.94 0,1,1 12.1823,41.242A2.94,2.94 0,1,1 6.302300000000001,41.242" class="vMpwLcsW_0"></path><path stroke-dashoffset="18.898" stroke-linejoin="round" d="M19.711,41.093A2.94,2.94 0,1,1 25.591,41.093A2.94,2.94 0,1,1 19.711,41.093" class="vMpwLcsW_1"></path><path d="m6.3408 40.773s.90231-9.4521 9.4949-9.4356c9.2977.01794 9.75 9.53 9.75 9.53" class="vMpwLcsW_2"></path><path d="m12.132 41.802s1.0974-4.2596 3.842-4.2244c2.7826.03561 3.8143 4.1662 3.8143 4.1662" class="vMpwLcsW_3"></path></g><style data-made-with="vivus-instant">.vMpwLcsW_0{stroke-dasharray:19 21;stroke-dashoffset:20;animation:vMpwLcsW_draw 2000ms ease 0ms forwards;}.vMpwLcsW_1{stroke-dasharray:19 21;stroke-dashoffset:20;animation:vMpwLcsW_draw 2000ms ease 333ms forwards;}.vMpwLcsW_2{stroke-dasharray:30 32;stroke-dashoffset:31;animation:vMpwLcsW_draw 2000ms ease 666ms forwards;}.vMpwLcsW_3{stroke-dasharray:13 15;stroke-dashoffset:14;animation:vMpwLcsW_draw 2000ms ease 1000ms forwards;}@keyframes vMpwLcsW_draw{100%{stroke-dashoffset:0;}}@keyframes vMpwLcsW_fade{0%{stroke-opacity:1;}94.44444444444444%{stroke-opacity:1;}100%{stroke-opacity:0;}}</style></svg>
