<!--?xml version="1.0" encoding="UTF-8"?-->
<svg width="27.019mm" height="6.5487mm" version="1.1" viewBox="0 0 27.019 6.5487" xmlns="http://www.w3.org/2000/svg" style=""><g transform="translate(-44.725,-154.16)"><path d="m45.247 155.06c.15298-.26187.65182-.56193 1.1911-.54533s1.7582 1.2575 2.722 1.2879c.96373.0304 1.7079-1.219 2.6568-1.2203.94895-.001 1.4681 1.1133 2.4054 1.1359.93736.0226 1.7766-1.1468 2.7395-1.1359.9629.011 1.6074 1.1299 2.5725 1.1359s1.8003-1.2002 2.7395-1.1693c.93918.0309 1.4431 1.1882 2.372 1.2027.92887.0145 1.7179-1.2611 2.6393-1.2361.92135.025 1.5706 1.2103 2.3052 1.2361s1.3309-1.0093 1.637-.73499.12819 4.4173-.04117 4.793c-.16935.37563-.7797.56007-1.5624.51902-.78275-.0411-1.7414-1.2608-2.6727-1.2361-.93132.0247-1.4222 1.2066-2.3386 1.2361-.91642.0295-1.6768-1.1862-2.6059-1.1693s-1.4918 1.1719-2.4388 1.2027c-.94699.0308-1.7839-1.1438-2.7395-1.1359-.95559.008-1.5874 1.1258-2.5391 1.1025-.95162-.0233-1.7079-1.3158-2.6393-1.3029-.93134.0129-1.4294 1.192-2.3386 1.2361s-1.8914-1.0629-2.6059-1.0691c-.71448-.006-.94887.61769-1.3698.53459s-.24156-4.4054-.08858-4.6673z" fill="none" stroke="#f1c40f" stroke-linecap="round" stroke-width=".70009" class="cPlfRnTl_0"></path></g><style data-made-with="vivus-instant">.cPlfRnTl_0{stroke-dasharray:68 70;stroke-dashoffset:69;animation:cPlfRnTl_draw 2000ms ease-in-out 0ms forwards;}@keyframes cPlfRnTl_draw{100%{stroke-dashoffset:0;}}@keyframes cPlfRnTl_fade{0%{stroke-opacity:1;}94.44444444444444%{stroke-opacity:1;}100%{stroke-opacity:0;}}</style></svg>
