<!--?xml version="1.0" encoding="UTF-8"?-->
<svg width="29.002mm" height="10.629mm" version="1.1" viewBox="0 0 29.002 10.629" xmlns="http://www.w3.org/2000/svg" style=""><g transform="translate(-128.11,-32.643)" fill="none" stroke="#f1c40f" stroke-linecap="round" stroke-width=".70009"><path d="m133.23 33.342c-.68153.47822 4.733 9.1109 5.3454 9.4213s12.691.14892 13.397-.33409c.6536-.44714-4.7426-8.7916-5.4122-9.154s-12.649-.4114-13.33.06682v-2e-6" class="JKLHSNzm_0"></path><path d="m137.51 41.483s-8.3447.34785-9.0006-.09449c-.65588-.44234 4.722-8.0465 4.722-8.0465" class="JKLHSNzm_1"></path><path d="m147.4 34.242s8.6454-.33114 9.3012.11119c.65588.44234-4.722 8.0465-4.722 8.0465" class="JKLHSNzm_2"></path><g><path d="m133.67 34.845 3.4627-1e-6" class="JKLHSNzm_3"></path><path d="m134.78 36.829 3.4745-1e-6" class="JKLHSNzm_4"></path><path d="m135.85 38.743 3.4745-1e-6" class="JKLHSNzm_5"></path><path d="m137.06 40.691 3.4745-1e-6" class="JKLHSNzm_6"></path></g></g><style data-made-with="vivus-instant">.JKLHSNzm_0{stroke-dasharray:49 51;stroke-dashoffset:50;animation:JKLHSNzm_draw 2000ms ease-in-out 0ms forwards;}.JKLHSNzm_1{stroke-dasharray:19 21;stroke-dashoffset:20;animation:JKLHSNzm_draw 2000ms ease-in-out 166ms forwards;}.JKLHSNzm_2{stroke-dasharray:19 21;stroke-dashoffset:20;animation:JKLHSNzm_draw 2000ms ease-in-out 333ms forwards;}.JKLHSNzm_3{stroke-dasharray:4 6;stroke-dashoffset:5;animation:JKLHSNzm_draw 2000ms ease-in-out 500ms forwards;}.JKLHSNzm_4{stroke-dasharray:4 6;stroke-dashoffset:5;animation:JKLHSNzm_draw 2000ms ease-in-out 666ms forwards;}.JKLHSNzm_5{stroke-dasharray:4 6;stroke-dashoffset:5;animation:JKLHSNzm_draw 2000ms ease-in-out 833ms forwards;}.JKLHSNzm_6{stroke-dasharray:4 6;stroke-dashoffset:5;animation:JKLHSNzm_draw 2000ms ease-in-out 1000ms forwards;}@keyframes JKLHSNzm_draw{100%{stroke-dashoffset:0;}}@keyframes JKLHSNzm_fade{0%{stroke-opacity:1;}94.44444444444444%{stroke-opacity:1;}100%{stroke-opacity:0;}}</style></svg>
