<!--?xml version="1.0" encoding="UTF-8"?-->
<svg width="26.752mm" height="12.323mm" version="1.1" viewBox="0 0 26.752 12.323" xmlns="http://www.w3.org/2000/svg" style=""><g transform="translate(-44.788,-111.39)" fill="none" stroke="#f1c40f" stroke-linecap="round" stroke-width=".70009"><path d="m45.83 112.02c-1.687 1.1382.0718 5.3949 1.4647 7.276 1.3929 1.8812 5.2388 4.953 6.6146 3.7798s.35314-4.6774-1.3229-6.7563-5.0693-5.4377-6.7563-4.2995z" class="Engsrzoi_0"></path><path d="m46.533 111.8s15.178-.21073 17.545.15711c.99458.15462 3.6905 2.2798 5.1633 4.4868 2.031 3.0436 2.6093 6.4236 1.0842 6.6382-2.6311.37036-17.105.26726-17.105.26726" class="Engsrzoi_1"></path><g><path d="m45.255 114.25 1.9532-.003" class="Engsrzoi_2"></path><path d="m45.881 116.51 1.9532-.003" class="Engsrzoi_3"></path><path d="m47.062 118.85 1.9532-.003" class="Engsrzoi_4"></path><path d="m49.105 121.15 1.9532-.003" class="Engsrzoi_5"></path></g></g><style data-made-with="vivus-instant">.Engsrzoi_0{stroke-dasharray:32 34;stroke-dashoffset:33;animation:Engsrzoi_draw 1031ms ease 0ms forwards;}.Engsrzoi_1{stroke-dasharray:50 52;stroke-dashoffset:51;animation:Engsrzoi_draw 1593ms ease 1031ms forwards;}.Engsrzoi_2{stroke-dasharray:2 4;stroke-dashoffset:3;animation:Engsrzoi_draw 93ms ease 2625ms forwards;}.Engsrzoi_3{stroke-dasharray:2 4;stroke-dashoffset:3;animation:Engsrzoi_draw 93ms ease 2718ms forwards;}.Engsrzoi_4{stroke-dasharray:2 4;stroke-dashoffset:3;animation:Engsrzoi_draw 93ms ease 2812ms forwards;}.Engsrzoi_5{stroke-dasharray:2 4;stroke-dashoffset:3;animation:Engsrzoi_draw 93ms ease 2906ms forwards;}@keyframes Engsrzoi_draw{100%{stroke-dashoffset:0;}}@keyframes Engsrzoi_fade{0%{stroke-opacity:1;}94.44444444444444%{stroke-opacity:1;}100%{stroke-opacity:0;}}</style></svg>
