<!--?xml version="1.0" encoding="UTF-8"?-->
<svg width="27.629mm" height="8.6323mm" version="1.1" viewBox="0 0 27.629 8.6323" xmlns="http://www.w3.org/2000/svg" style=""><g transform="translate(-86.506,-73.368)" fill="none" stroke="#f1c40f" stroke-linecap="round" stroke-width=".70009"><g><path d="m91.636 73.823c-1.0045-.54416-2.94 1.5724-3.7325 2.9293s-1.5153 4.2972-.66146 4.8192 3.0124-1.7419 3.7561-3.1419 1.6424-4.0624.63783-4.6066z" class="pvkNeDFi_0"></path><path d="m109.01 73.805c1.0045-.54416 2.94 1.5724 3.7325 2.9293s1.5152 4.2972.66146 4.8192c-.8538.52197-3.0124-1.7419-3.7561-3.1419s-1.6424-4.0624-.63783-4.6066z" class="pvkNeDFi_1"></path><path d="m91.246 73.737 18.128-.0157" class="pvkNeDFi_2"></path><path d="m87.496 81.648 25.637-.01764" class="pvkNeDFi_3"></path></g><g><path d="m92.024 75.8 2.7729-.0084" class="pvkNeDFi_4"></path><path d="m91.373 77.78 2.7729-.0084" class="pvkNeDFi_5"></path><path d="m90.183 79.672 2.7729-.0084" class="pvkNeDFi_6"></path></g></g><style data-made-with="vivus-instant">.pvkNeDFi_0{stroke-dasharray:21 23;stroke-dashoffset:22;animation:pvkNeDFi_draw 2000ms ease 0ms forwards;}.pvkNeDFi_1{stroke-dasharray:21 23;stroke-dashoffset:22;animation:pvkNeDFi_draw 2000ms ease 166ms forwards;}.pvkNeDFi_2{stroke-dasharray:19 21;stroke-dashoffset:20;animation:pvkNeDFi_draw 2000ms ease 333ms forwards;}.pvkNeDFi_3{stroke-dasharray:26 28;stroke-dashoffset:27;animation:pvkNeDFi_draw 2000ms ease 500ms forwards;}.pvkNeDFi_4{stroke-dasharray:3 5;stroke-dashoffset:4;animation:pvkNeDFi_draw 2000ms ease 666ms forwards;}.pvkNeDFi_5{stroke-dasharray:3 5;stroke-dashoffset:4;animation:pvkNeDFi_draw 2000ms ease 833ms forwards;}.pvkNeDFi_6{stroke-dasharray:3 5;stroke-dashoffset:4;animation:pvkNeDFi_draw 2000ms ease 1000ms forwards;}@keyframes pvkNeDFi_draw{100%{stroke-dashoffset:0;}}@keyframes pvkNeDFi_fade{0%{stroke-opacity:1;}94.44444444444444%{stroke-opacity:1;}100%{stroke-opacity:0;}}</style></svg>
