<!--?xml version="1.0" encoding="UTF-8"?-->
<svg width="19.71mm" height="19.544mm" version="1.1" viewBox="0 0 19.71 19.544" xmlns="http://www.w3.org/2000/svg" style=""><g transform="translate(-6.198,-67.97)" fill="none" stroke="#f1c40f" stroke-width=".7"><path d="m7.851 71.227c-.048522.92143-1.3164 1.3627-1.3029 2.205.013475.84228 1.2976 1.2518 1.3363 2.1047.038703.85294-1.2336 1.4836-1.2027 2.3386.030912.85505 1.3141 1.29 1.3029 2.1382-.011189.84815-1.4247 1.3021-1.4032 2.1716.021539.8695 1.4744 1.2357 1.5368 2.1382.062444.90246-1.7468 2.3023-1.4199 2.6894s1.8557-1.3298 2.7896-1.2528c.93388.07698 1.5072 1.4445 2.372 1.4032s1.1603-1.4041 1.9711-1.4366c.81077-.03243 1.2287 1.238 2.0713 1.2695.84261.03155 1.4829-1.2464 2.3386-1.2027.85572.04365 1.2365 1.3567 2.1047 1.3698.86822.01309 1.3707-1.3643 2.3052-1.4032.93455-.03887 2.2044 1.6985 2.7395 1.2361.53506-.46235-1.3187-1.7439-1.2361-2.6727.08257-.92881 1.4002-1.3531 1.4032-2.2384.0029-.88533-1.4277-1.4193-1.4032-2.2718.02449-.85248 1.3713-1.1504 1.4032-2.0045.03186-.85412-1.3504-1.4226-1.3698-2.3052-.01939-.88265 1.2773-1.4811 1.2361-2.3052s-1.2239-1.0534-1.3029-1.9377c-.07904-.8843 1.693-2.358 1.3196-2.7896-.37334-.43167-1.8782 1.238-2.7896 1.186-.91142-.05203-1.4206-1.2665-2.2384-1.2695-.81774-.003-1.2111 1.1103-2.0379 1.1359-.82678.02559-1.5053-1.1659-2.372-1.1359-.8667.03005-1.4227 1.3087-2.2384 1.2695-.81568-.03917-1.1027-1.3058-1.9043-1.3364-.8016-.03051-1.1811 1.1714-2.1382 1.2695-.95705.09816-2.7399-1.5078-3.1068-1.0691s1.2847 1.7847 1.2362 2.7061z" class="bwzrZpJs_0"></path><path d="m9.4051 71.195c-.40484.45498-.31728 12.667.16536 13.087.48264.42 12.446.49867 12.946-.04725.49929-.54592.37638-12.604-.00018-13.087-.37656-.48319-12.706-.40754-13.111.04744z" class="bwzrZpJs_1"></path></g><style data-made-with="vivus-instant">.bwzrZpJs_0{stroke-dasharray:89 91;stroke-dashoffset:90;animation:bwzrZpJs_draw 3000ms ease-in 0ms forwards;}.bwzrZpJs_1{stroke-dasharray:53 55;stroke-dashoffset:54;animation:bwzrZpJs_draw 3000ms ease-in 0ms forwards;}@keyframes bwzrZpJs_draw{100%{stroke-dashoffset:0;}}@keyframes bwzrZpJs_fade{0%{stroke-opacity:1;}94.44444444444444%{stroke-opacity:1;}100%{stroke-opacity:0;}}</style></svg>
