<!--?xml version="1.0" encoding="UTF-8"?-->
<svg width="30.794mm" height="10.274mm" version="1.1" viewBox="0 0 30.794 10.274" xmlns="http://www.w3.org/2000/svg" style=""><g transform="translate(-84.819,-152.27)" fill="none" stroke="#f1c40f" stroke-linecap="round" stroke-width=".70009"><path d="m96.215 161.92c.61235.31035 12.892.37334 13.621.0793.73451-.296-4.7426-8.7916-5.4122-9.154-.66957-.36238-13.334-.29326-14.015.18494-.68153.47822 5.1937 8.5794 5.806 8.8897" class="ljPhTwyB_0"></path><path d="m95.338 160.94s-9.3266.19346-10.099-.0484c-.77281-.2419 5.1708-7.8575 5.1708-7.8575" class="ljPhTwyB_1"></path><path d="m105.45 154.05s8.996-.2976 9.7522.0946c.75612.39223-5.3552 7.8633-5.3552 7.8633" class="ljPhTwyB_2"></path><path d="m91.056 154.56 14.66.0118" class="ljPhTwyB_3"></path><g><path d="m92.211 156.4 14.66.0118" class="ljPhTwyB_4"></path><path d="m93.414 158.25 14.66.0118" class="ljPhTwyB_5"></path><path d="m94.8 160.19 14.41-.0383" class="ljPhTwyB_6"></path></g></g><style data-made-with="vivus-instant">.ljPhTwyB_0{stroke-dasharray:50 52;stroke-dashoffset:51;animation:ljPhTwyB_draw 974ms ease 0ms forwards;}.ljPhTwyB_1{stroke-dasharray:20 22;stroke-dashoffset:21;animation:ljPhTwyB_draw 401ms ease 974ms forwards;}.ljPhTwyB_2{stroke-dasharray:20 22;stroke-dashoffset:21;animation:ljPhTwyB_draw 401ms ease 1375ms forwards;}.ljPhTwyB_3{stroke-dasharray:15 17;stroke-dashoffset:16;animation:ljPhTwyB_draw 305ms ease 1777ms forwards;}.ljPhTwyB_4{stroke-dasharray:15 17;stroke-dashoffset:16;animation:ljPhTwyB_draw 305ms ease 2082ms forwards;}.ljPhTwyB_5{stroke-dasharray:15 17;stroke-dashoffset:16;animation:ljPhTwyB_draw 305ms ease 2388ms forwards;}.ljPhTwyB_6{stroke-dasharray:15 17;stroke-dashoffset:16;animation:ljPhTwyB_draw 305ms ease 2694ms forwards;}@keyframes ljPhTwyB_draw{100%{stroke-dashoffset:0;}}@keyframes ljPhTwyB_fade{0%{stroke-opacity:1;}94.44444444444444%{stroke-opacity:1;}100%{stroke-opacity:0;}}</style></svg>
