<!--?xml version="1.0" encoding="UTF-8"?-->
<svg width="22.854mm" height="12.03mm" version="1.1" viewBox="0 0 22.854 12.03" xmlns="http://www.w3.org/2000/svg" style=""><g transform="translate(-174.77,-31.95)" fill="none" stroke="#f1c40f" stroke-linecap="round" stroke-width=".70009"><path d="m176.94 38.979c1.0771 1.9214 3.1277 5.5635 5.1499 4.4412s.071-5.0775-1.0867-6.9926c-1.1576-1.9151-3.2866-4.8882-5.1026-3.7798s-.0376 4.4098 1.0394 6.3312z" class="qChLXdzi_0"></path><path d="m176.65 32.407s13.001-.2726 14.579.05142c1.5776.32402 3.2794 2.3876 4.4808 4.5531s2.2548 6.1129.97623 6.2901c-1.2786.17718-15.343.32799-15.343.32799" class="qChLXdzi_1"></path><g><path d="m179.8 34.514h3.0002" opacity=".99738" class="qChLXdzi_2"></path><path d="m181.21 36.633h3.0002" opacity=".99738" class="qChLXdzi_3"></path><path d="m182.4 38.888h3.0002" opacity=".99738" class="qChLXdzi_4"></path><path d="m183 41.16h3.0002" opacity=".99738" class="qChLXdzi_5"></path></g></g><style data-made-with="vivus-instant">.qChLXdzi_0{stroke-dasharray:30 32;stroke-dashoffset:31;animation:qChLXdzi_draw 2000ms ease-out 0ms forwards;}.qChLXdzi_1{stroke-dasharray:44 46;stroke-dashoffset:45;animation:qChLXdzi_draw 2000ms ease-out 200ms forwards;}.qChLXdzi_2{stroke-dasharray:4 6;stroke-dashoffset:5;animation:qChLXdzi_draw 2000ms ease-out 400ms forwards;}.qChLXdzi_3{stroke-dasharray:4 6;stroke-dashoffset:5;animation:qChLXdzi_draw 2000ms ease-out 600ms forwards;}.qChLXdzi_4{stroke-dasharray:4 6;stroke-dashoffset:5;animation:qChLXdzi_draw 2000ms ease-out 800ms forwards;}.qChLXdzi_5{stroke-dasharray:4 6;stroke-dashoffset:5;animation:qChLXdzi_draw 2000ms ease-out 1000ms forwards;}@keyframes qChLXdzi_draw{100%{stroke-dashoffset:0;}}@keyframes qChLXdzi_fade{0%{stroke-opacity:1;}94.44444444444444%{stroke-opacity:1;}100%{stroke-opacity:0;}}</style></svg>
