<!--?xml version="1.0" encoding="UTF-8"?-->
<svg width="21.616mm" height="18.164mm" version="1.1" viewBox="0 0 21.616 18.164" xmlns="http://www.w3.org/2000/svg" style=""><g transform="translate(-175.45,-68.697)" fill="none" stroke="#f1c40f" stroke-linecap="round" stroke-width=".70009"><path stroke-dashoffset="18.898" d="M185.6585,77.709A2.3015,2.3015 0,1,1 190.2615,77.709A2.3015,2.3015 0,1,1 185.6585,77.709" class="mdMfBlHy_0"></path><g><path d="m186.32 76.03-4.4132-4.4346" class="mdMfBlHy_1"></path><path d="m188.02 75.391.004-6.3142" class="mdMfBlHy_2"></path><path d="m189.64 76.122 4.4768-4.5269" class="mdMfBlHy_3"></path><path d="m190.3 77.675 6.4312-.03341" class="mdMfBlHy_4"></path><path d="m189.66 79.346 4.4891 4.5877" class="mdMfBlHy_5"></path><path d="m188.04 80.014-.0183 6.4618" class="mdMfBlHy_6"></path><path d="m186.32 79.329-4.5058 4.5484" class="mdMfBlHy_7"></path><path d="m185.61 77.642-6.3191-.0167" class="mdMfBlHy_8"></path><path stroke-dashoffset="18.898" d="M179.2688,77.775A8.7212,8.7212 0,1,1 196.71120000000002,77.775A8.7212,8.7212 0,1,1 179.2688,77.775" class="mdMfBlHy_9"></path></g><path d="m187.9 86.501s-3.0688.10867-5.9093-.41778-6.141-4.4208-6.1904-8.067 3.3515-8.4236 6.8883-8.7392 5.2576-.21522 5.2576-.21522" class="mdMfBlHy_10"></path></g><style data-made-with="vivus-instant">.mdMfBlHy_0{stroke-dasharray:15 17;stroke-dashoffset:16;animation:mdMfBlHy_draw 279ms ease 0ms forwards;}.mdMfBlHy_1{stroke-dasharray:7 9;stroke-dashoffset:8;animation:mdMfBlHy_draw 139ms ease 279ms forwards;}.mdMfBlHy_2{stroke-dasharray:7 9;stroke-dashoffset:8;animation:mdMfBlHy_draw 139ms ease 418ms forwards;}.mdMfBlHy_3{stroke-dasharray:7 9;stroke-dashoffset:8;animation:mdMfBlHy_draw 139ms ease 558ms forwards;}.mdMfBlHy_4{stroke-dasharray:7 9;stroke-dashoffset:8;animation:mdMfBlHy_draw 139ms ease 697ms forwards;}.mdMfBlHy_5{stroke-dasharray:7 9;stroke-dashoffset:8;animation:mdMfBlHy_draw 139ms ease 837ms forwards;}.mdMfBlHy_6{stroke-dasharray:7 9;stroke-dashoffset:8;animation:mdMfBlHy_draw 139ms ease 976ms forwards;}.mdMfBlHy_7{stroke-dasharray:7 9;stroke-dashoffset:8;animation:mdMfBlHy_draw 139ms ease 1116ms forwards;}.mdMfBlHy_8{stroke-dasharray:7 9;stroke-dashoffset:8;animation:mdMfBlHy_draw 139ms ease 1255ms forwards;}.mdMfBlHy_9{stroke-dasharray:55 57;stroke-dashoffset:56;animation:mdMfBlHy_draw 976ms ease 1395ms forwards;}.mdMfBlHy_10{stroke-dasharray:35 37;stroke-dashoffset:36;animation:mdMfBlHy_draw 627ms ease 2372ms forwards;}@keyframes mdMfBlHy_draw{100%{stroke-dashoffset:0;}}@keyframes mdMfBlHy_fade{0%{stroke-opacity:1;}94.44444444444444%{stroke-opacity:1;}100%{stroke-opacity:0;}}</style></svg>
