<!--?xml version="1.0" encoding="UTF-8"?-->
<svg width="25.986mm" height="13.679mm" version="1.1" viewBox="0 0 25.986 13.679" xmlns="http://www.w3.org/2000/svg" style=""><g transform="translate(-45.161,-30.942)" fill="none" stroke="#f1c40f" stroke-linecap="round" stroke-width=".70009"><path d="m45.57 32.577s-.35452 9.8454.68508 11.036c1.0095 1.1558 3.4457.26293 3.4457.26293" class="fWfAkjEH_0"></path><path d="m54.522 44.033c.7388-.18966-3.2268-10.332-3.849-11.29-.62215-.95808-1.7454-1.4615-2.7403-1.441-.99488.02046-2.3914.3128-2.3624 1.2757.02904.96286 3.6878 11.233 4.4649 11.432s3.748.213 4.4868.02334z" class="fWfAkjEH_1"></path><g><path d="m54.647 43.783s4.49.64096 5.4282.30752c.72679-.25833-3.0813-10.336-3.827-11.301s-1.6825-1.3521-2.9293-1.3702c-1.2468-.01804-2.5277 1.5355-2.5277 1.5355" class="fWfAkjEH_2"></path><path d="m60.189 43.84s4.166.51896 5.1041.18553c.72679-.25833-3.0813-10.398-3.827-11.363s-1.6825-1.3521-2.9293-1.3702c-1.2468-.01804-2.335 1.3954-2.335 1.3954" class="fWfAkjEH_3"></path><path d="m65.335 43.926s4.4311.49994 5.3692.16651c.72679-.25833-3.0813-10.398-3.827-11.363-.74573-.96457-1.6825-1.3521-2.9293-1.3702-1.2468-.01804-2.3263 1.3779-2.3263 1.3779" class="fWfAkjEH_4"></path><path d="m70.71 43.134s.35452-9.8454-.68508-11.036c-1.0095-1.1558-4.3811-.39656-4.3811-.39656" class="fWfAkjEH_5"></path></g></g><style data-made-with="vivus-instant">.fWfAkjEH_0{stroke-dasharray:15 17;stroke-dashoffset:16;animation:fWfAkjEH_draw 2000ms ease 0ms forwards;}.fWfAkjEH_1{stroke-dasharray:36 38;stroke-dashoffset:37;animation:fWfAkjEH_draw 2000ms ease 200ms forwards;}.fWfAkjEH_2{stroke-dasharray:24 26;stroke-dashoffset:25;animation:fWfAkjEH_draw 2000ms ease 400ms forwards;}.fWfAkjEH_3{stroke-dasharray:24 26;stroke-dashoffset:25;animation:fWfAkjEH_draw 2000ms ease 600ms forwards;}.fWfAkjEH_4{stroke-dasharray:24 26;stroke-dashoffset:25;animation:fWfAkjEH_draw 2000ms ease 800ms forwards;}.fWfAkjEH_5{stroke-dasharray:16 18;stroke-dashoffset:17;animation:fWfAkjEH_draw 2000ms ease 1000ms forwards;}@keyframes fWfAkjEH_draw{100%{stroke-dashoffset:0;}}@keyframes fWfAkjEH_fade{0%{stroke-opacity:1;}94.44444444444444%{stroke-opacity:1;}100%{stroke-opacity:0;}}</style></svg>
